<svg width="200" height="80" viewBox="0 0 200 80" xmlns="http://www.w3.org/2000/svg">
  <defs>
    <!-- Modern gradient definitions -->
    <linearGradient id="shieldGradient" x1="0%" y1="0%" x2="100%" y2="100%">
      <stop offset="0%" style="stop-color:#10b981;stop-opacity:1" />
      <stop offset="50%" style="stop-color:#059669;stop-opacity:1" />
      <stop offset="100%" style="stop-color:#047857;stop-opacity:1" />
    </linearGradient>
    
    <linearGradient id="checkGradient" x1="0%" y1="0%" x2="100%" y2="100%">
      <stop offset="0%" style="stop-color:#ffffff;stop-opacity:1" />
      <stop offset="100%" style="stop-color:#f0fdf4;stop-opacity:1" />
    </linearGradient>
    
    <linearGradient id="textGradient" x1="0%" y1="0%" x2="100%" y2="0%">
      <stop offset="0%" style="stop-color:#1f2937;stop-opacity:1" />
      <stop offset="100%" style="stop-color:#374151;stop-opacity:1" />
    </linearGradient>
    
    <!-- Glow effects -->
    <filter id="glow">
      <feGaussianBlur stdDeviation="3" result="coloredBlur"/>
      <feMerge> 
        <feMergeNode in="coloredBlur"/>
        <feMergeNode in="SourceGraphic"/>
      </feMerge>
    </filter>
    
    <!-- Drop shadow -->
    <filter id="shadow" x="-20%" y="-20%" width="140%" height="140%">
      <feDropShadow dx="0" dy="4" stdDeviation="8" flood-color="#000000" flood-opacity="0.15"/>
    </filter>
  </defs>
  
  <!-- Main Shield Logo -->
  <g transform="translate(10, 8)">
    <!-- Shield Background with Glow -->
    <path d="M20 0 L40 8 L40 32 C40 40 32 48 20 56 L0 48 L0 8 Z" 
          fill="url(#shieldGradient)" 
          filter="url(#glow)"
          stroke="#047857" 
          stroke-width="1"/>
    
    <!-- Shield Inner Glow -->
    <path d="M20 2 L38 9 L38 30 C38 37 31 44 20 52 L2 45 L2 9 Z" 
          fill="url(#shieldGradient)" 
          opacity="0.8"/>
    
    <!-- Checkmark -->
    <path d="M16 24 L24 32 L32 20" 
          stroke="url(#checkGradient)" 
          stroke-width="3" 
          fill="none" 
          stroke-linecap="round" 
          stroke-linejoin="round"
          filter="url(#shadow)"/>
    
    <!-- Quality Assurance Dots -->
    <circle cx="12" cy="16" r="2" fill="#ffffff" opacity="0.9"/>
    <circle cx="28" cy="16" r="2" fill="#ffffff" opacity="0.9"/>
    <circle cx="12" cy="44" r="2" fill="#ffffff" opacity="0.9"/>
    <circle cx="28" cy="44" r="2" fill="#ffffff" opacity="0.9"/>
  </g>
  
  <!-- Text Section -->
  <g transform="translate(70, 0)">
    <!-- FirstQA Text with Modern Typography -->
    <text x="0" y="35" font-family="'Segoe UI', Arial, sans-serif" font-size="32" font-weight="700" fill="url(#textGradient)" letter-spacing="-0.5">
      First
    </text>
    <text x="0" y="60" font-family="'Segoe UI', Arial, sans-serif" font-size="32" font-weight="700" fill="url(#textGradient)" letter-spacing="-0.5">
      QA
    </text>
    
    <!-- Tagline -->
    <text x="0" y="75" font-family="'Segoe UI', Arial, sans-serif" font-size="12" font-weight="500" fill="#6b7280" letter-spacing="0.5">
      QUALITY FIRST
    </text>
  </g>
</svg>
