<svg width="64" height="64" viewBox="0 0 64 64" xmlns="http://www.w3.org/2000/svg">
  <defs>
    <!-- Modern gradient definitions -->
    <linearGradient id="shieldGradientIcon" x1="0%" y1="0%" x2="100%" y2="100%">
      <stop offset="0%" style="stop-color:#10b981;stop-opacity:1" />
      <stop offset="50%" style="stop-color:#059669;stop-opacity:1" />
      <stop offset="100%" style="stop-color:#047857;stop-opacity:1" />
    </linearGradient>
    
    <linearGradient id="checkGradientIcon" x1="0%" y1="0%" x2="100%" y2="100%">
      <stop offset="0%" style="stop-color:#ffffff;stop-opacity:1" />
      <stop offset="100%" style="stop-color:#f0fdf4;stop-opacity:1" />
    </linearGradient>
    
    <!-- Glow effects -->
    <filter id="glowIcon">
      <feGaussianBlur stdDeviation="2" result="coloredBlur"/>
      <feMerge> 
        <feMergeNode in="coloredBlur"/>
        <feMergeNode in="SourceGraphic"/>
      </feMerge>
    </filter>
    
    <!-- Drop shadow -->
    <filter id="shadowIcon" x="-20%" y="-20%" width="140%" height="140%">
      <feDropShadow dx="0" dy="3" stdDeviation="4" flood-color="#000000" flood-opacity="0.15"/>
    </filter>
    
    <!-- Inner glow for depth -->
    <filter id="innerGlow">
      <feGaussianBlur stdDeviation="1" result="blur"/>
      <feComposite in="SourceGraphic" in2="blur" operator="over"/>
    </filter>
  </defs>
  
  <!-- Background Circle with Subtle Glow -->
  <circle cx="32" cy="32" r="30" fill="url(#shieldGradientIcon)" opacity="0.1" filter="url(#glowIcon)"/>
  
  <!-- Main Shield -->
  <g transform="translate(16, 12)">
    <!-- Shield Background -->
    <path d="M16 0 L32 8 L32 32 C32 40 24 48 16 56 L0 48 L0 8 Z" 
          fill="url(#shieldGradientIcon)" 
          filter="url(#shadowIcon)"
          stroke="#047857" 
          stroke-width="1.5"/>
    
    <!-- Shield Inner Glow -->
    <path d="M16 2 L30 9 L30 30 C30 37 23 44 16 50 L2 43 L2 9 Z" 
          fill="url(#shieldGradientIcon)" 
          opacity="0.9"
          filter="url(#innerGlow)"/>
    
    <!-- Shield Highlight -->
    <path d="M16 4 L28 10 L28 28 C28 34 22 40 16 46 L4 40 L4 10 Z" 
          fill="url(#shieldGradientIcon)" 
          opacity="0.7"/>
    
    <!-- Checkmark with Glow -->
    <path d="M12 24 L20 32 L28 20" 
          stroke="url(#checkGradientIcon)" 
          stroke-width="3.5" 
          fill="none" 
          stroke-linecap="round" 
          stroke-linejoin="round"
          filter="url(#shadowIcon)"/>
    
    <!-- Quality Assurance Dots -->
    <circle cx="10" cy="16" r="2.5" fill="#ffffff" opacity="0.95"/>
    <circle cx="22" cy="16" r="2.5" fill="#ffffff" opacity="0.95"/>
    <circle cx="10" cy="40" r="2.5" fill="#ffffff" opacity="0.95"/>
    <circle cx="22" cy="40" r="2.5" fill="#ffffff" opacity="0.95"/>
    
    <!-- Subtle Inner Lines for Depth -->
    <path d="M16 8 L16 48" stroke="#ffffff" stroke-width="0.5" opacity="0.3"/>
    <path d="M8 24 L24 24" stroke="#ffffff" stroke-width="0.5" opacity="0.3"/>
  </g>
  
  <!-- Decorative Ring -->
  <circle cx="32" cy="32" r="28" fill="none" stroke="#10b981" stroke-width="1" opacity="0.3"/>
</svg>
