<svg width="300" height="50" viewBox="0 0 300 50" xmlns="http://www.w3.org/2000/svg">
  <defs>
    <linearGradient id="logoGradient" x1="0%" y1="0%" x2="100%" y2="100%">
      <stop offset="0%" style="stop-color:#3182ce;stop-opacity:1" />
      <stop offset="100%" style="stop-color:#805ad5;stop-opacity:1" />
    </linearGradient>
  </defs>
  
  <!-- Logo Symbol -->
  <circle cx="25" cy="25" r="20" fill="url(#logoGradient)"/>
  <circle cx="25" cy="25" r="12" fill="white"/>
  
  <!-- Network Pattern -->
  <circle cx="25" cy="13" r="2.5" fill="#3182ce"/>
  <circle cx="37" cy="22" r="2.5" fill="#3182ce"/>
  <circle cx="37" cy="28" r="2.5" fill="#3182ce"/>
  <circle cx="25" cy="37" r="2.5" fill="#3182ce"/>
  <circle cx="13" cy="28" r="2.5" fill="#3182ce"/>
  <circle cx="13" cy="22" r="2.5" fill="#3182ce"/>
  
  <!-- Connection Lines -->
  <line x1="25" y1="13" x2="25" y2="20" stroke="#3182ce" stroke-width="1.2"/>
  <line x1="25" y1="20" x2="33" y2="20" stroke="#3182ce" stroke-width="1.2"/>
  <line x1="25" y1="20" x2="17" y2="20" stroke="#3182ce" stroke-width="1.2"/>
  <line x1="25" y1="30" x2="33" y2="30" stroke="#3182ce" stroke-width="1.2"/>
  <line x1="25" y1="30" x2="17" y2="30" stroke="#3182ce" stroke-width="1.2"/>
  <line x1="25" y1="30" x2="25" y2="37" stroke="#3182ce" stroke-width="1.2"/>
  
  <!-- Logo Text -->
  <text x="60" y="22" font-family="Inter, -apple-system, BlinkMacSystemFont, 'Segoe UI', Roboto, sans-serif" font-size="16" font-weight="600" fill="#1a202c">Get</text>
  <text x="60" y="35" font-family="Inter, -apple-system, BlinkMacSystemFont, 'Segoe UI', Roboto, sans-serif" font-size="16" font-weight="700" fill="#3182ce">Your</text>
  <text x="60" y="45" font-family="Inter, -apple-system, BlinkMacSystemFont, 'Segoe UI', Roboto, sans-serif" font-size="16" font-weight="700" fill="#3182ce">Tester</text>
</svg>
